<?xml version="1.0" encoding="UTF-8" standalone="no"?>
<!DOCTYPE svg PUBLIC "-//W3C//DTD SVG 1.1//EN" "http://www.w3.org/Graphics/SVG/1.1/DTD/svg11.dtd">
<svg width="100%" height="100%" viewBox="0 0 1600 280" version="1.1" xmlns="http://www.w3.org/2000/svg" xmlns:xlink="http://www.w3.org/1999/xlink" xml:space="preserve" xmlns:serif="http://www.serif.com/" style="fill-rule:evenodd;clip-rule:evenodd;stroke-linejoin:round;stroke-miterlimit:2;">
    <g transform="matrix(1,0,0,1,0,0.0109227)">
        <path d="M343.35,89.926L336.288,89.926L336.288,102.158L319.999,130.37L319.999,137.57L336.288,109.358L336.288,117.926L338.731,117.926L319.999,150.37L319.999,157.57L342.889,117.926L350.279,117.926L319.999,170.37L319.999,177.57L354.436,117.926L361.827,117.926L319.999,190.37L319.999,197.57L365.984,117.926L368.288,117.926L368.288,113.935L387.882,80L395.272,80L325.999,199.978L319.999,199.978L319.999,198.5L319.603,199.978L311.113,199.978L319.999,166.818L319.999,159.863L309.249,199.978L300.76,199.978L319.999,128.181L319.999,121.226L298.896,199.978L290.406,199.978L319.999,89.544L319.999,82.589L288.543,199.978L280.053,199.978L312.203,80L325.986,80L319.999,90.37L319.999,97.57L330.143,80L337.534,80L319.999,110.37L319.999,117.57L341.691,80L349.082,80L343.35,89.926ZM368.288,106.735L368.288,93.935L376.334,80L383.725,80L368.288,106.735ZM366.446,89.926L359.055,89.926L364.786,80L372.177,80L366.446,89.926ZM354.898,89.926L347.508,89.926L353.239,80L360.629,80L354.898,89.926ZM216.288,90.206L216.288,117.926L217.35,117.926L200.032,182.553L200.032,189.508L219.213,117.926L227.703,117.926L205.716,199.978L80.025,199.978L80.025,80L206.806,80L200.032,105.279L200.032,112.234L208.669,80L217.159,80L200.032,143.916L200.032,150.871L216.288,90.206ZM229.567,117.926L238.056,117.926L216.069,199.978L207.58,199.978L229.567,117.926ZM239.92,117.926L248.288,117.926L248.288,89.926L247.423,89.926L250.083,80L258.573,80L226.423,199.978L217.933,199.978L239.92,117.926ZM245.559,89.926L237.07,89.926L239.729,80L248.219,80L245.559,89.926ZM235.206,89.926L226.716,89.926L229.376,80L237.866,80L235.206,89.926ZM224.853,89.926L216.363,89.926L219.023,80L227.513,80L224.853,89.926ZM134.3,89.926L92.3,89.926L92.3,117.926L134.3,117.926L134.3,89.926ZM698.275,90.066L698.275,91.102L680.019,95.993L680.019,95.974L560.012,165.256L560.012,169.074L529.106,199.978L522.601,199.978L560.012,162.569L560.012,162.023L680.019,92.741L680.019,94.958L698.275,90.066ZM698.275,100.419L698.275,101.454L680.019,106.346L680.019,107.521L560.012,176.803L560.012,183.216L543.249,199.978L536.744,199.978L560.012,176.711L560.012,173.57L680.019,104.288L680.019,105.31L698.275,100.419ZM698.275,110.772L698.275,111.807L680.019,116.698L680.019,119.068L560.012,188.35L560.012,185.117L680.019,115.835L680.019,115.663L698.275,110.772ZM710.212,117.926L714.076,117.926L680.019,127.051L680.019,126.016L710.212,117.926ZM728.275,114.122L728.275,113.086L800.02,93.863L800.02,94.899L728.275,114.122ZM728.275,103.769L728.275,102.734L800.02,83.511L800.02,84.546L728.275,103.769ZM728.275,93.416L728.275,92.381L774.484,80L778.348,80L728.275,93.416ZM702.662,89.926L698.798,89.926L735.844,80L739.708,80L702.662,89.926ZM576.288,94.891L576.288,98.124L560.012,107.521L560.012,112.506L472.535,199.978L466.029,199.978L560.012,106L560.012,104.288L576.288,94.891ZM576.288,106.438L576.288,109.671L560.012,119.068L560.012,115.835L576.288,106.438ZM576.391,117.926L581.991,117.926L560.012,130.615L560.012,127.382L576.391,117.926ZM596.392,117.926L601.992,117.926L560.012,142.162L560.012,140.79L500.821,199.978L494.315,199.978L560.012,134.285L560.012,138.929L596.392,117.926ZM608.288,114.291L608.288,111.058L662.085,80L667.685,80L608.288,114.291ZM608.288,102.744L608.288,99.511L642.084,80L647.684,80L608.288,102.744ZM608.288,91.197L608.288,89.926L604.89,89.926L622.083,80L627.683,80L608.288,91.197ZM590.489,89.926L584.888,89.926L602.082,80L607.682,80L590.489,89.926ZM456.288,96.582L456.288,103.087L440.005,119.369L440.005,122.524L395.285,199.978L387.894,199.978L440.005,109.724L440.005,112.863L456.288,96.582ZM456.288,110.724L456.288,117.229L440.005,133.511L440.005,141.148L463.228,117.926L469.734,117.926L440.005,147.653L440.005,142.524L406.832,199.978L399.442,199.978L440.005,129.724L440.005,127.005L456.288,110.724ZM477.371,117.926L483.877,117.926L440.005,161.795L440.005,162.524L418.38,199.978L410.99,199.978L440.005,149.724L440.005,155.29L477.371,117.926ZM488.288,113.515L488.288,107.01L515.299,80L521.805,80L488.288,113.515ZM488.288,99.373L488.288,92.868L501.156,80L507.662,80L488.288,99.373ZM483.593,89.926L477.087,89.926L487.013,80L493.519,80L483.593,89.926ZM469.45,89.926L462.944,89.926L472.87,80L479.376,80L469.45,89.926ZM301.849,80L310.339,80L278.189,199.978L269.7,199.978L301.849,80ZM291.496,80L299.986,80L267.836,199.978L259.346,199.978L291.496,80ZM281.143,80L289.633,80L257.483,199.978L248.993,199.978L281.143,80ZM270.789,80L279.279,80L247.129,199.978L238.64,199.978L270.789,80ZM260.436,80L268.926,80L236.776,199.978L228.286,199.978L260.436,80ZM800.02,197.391L800.02,198.426L794.228,199.978L790.364,199.978L800.02,197.391ZM800.02,187.038L800.02,188.074L755.589,199.978L751.725,199.978L800.02,187.038ZM800.02,176.686L800.02,177.721L716.95,199.978L713.086,199.978L800.02,176.686ZM800.02,166.333L800.02,167.368L680.019,199.521L680.019,199.897L679.878,199.978L674.277,199.978L680.019,196.664L680.019,198.485L800.02,166.333ZM800.02,155.98L800.02,157.015L680.019,189.168L680.019,188.35L659.877,199.978L654.276,199.978L680.019,185.117L680.019,188.133L800.02,155.98ZM800.02,145.627L800.02,146.663L680.019,178.815L680.019,177.78L800.02,145.627ZM800.02,135.275L800.02,136.31L680.019,168.462L680.019,167.427L800.02,135.275ZM800.02,124.922L800.02,125.957L680.019,158.11L680.019,157.074L800.02,124.922ZM800.02,114.569L800.02,115.604L680.019,147.757L680.019,146.721L800.02,114.569ZM800.02,104.216L800.02,105.252L680.019,137.404L680.019,136.369L800.02,104.216ZM697.205,80L701.069,80L680.019,85.64L680.019,84.605L697.205,80ZM582.081,80L587.681,80L560.012,95.974L560.012,98.364L458.392,199.978L451.886,199.978L560.012,91.858L560.012,92.741L582.081,80ZM543.585,80L550.091,80L440.005,190.079L440.005,197.716L557.728,80L560.012,80L560.012,81.194L562.079,80L567.68,80L560.012,84.427L560.012,84.221L444.249,199.978L434.085,199.978L440.005,189.724L440.005,183.574L543.585,80ZM529.442,80L535.948,80L440.005,175.937L440.005,182.524L429.928,199.978L422.537,199.978L440.005,169.724L440.005,169.432L529.442,80ZM444.585,80L451.09,80L440.005,91.084L440.005,98.721L458.728,80L465.233,80L440.005,105.227L440.005,102.524L383.737,199.978L376.347,199.978L440.005,89.724L440.005,84.579L444.585,80ZM434.072,80L440.005,80L440.005,82.524L372.189,199.978L364.799,199.978L434.072,80ZM422.525,80L429.915,80L360.642,199.978L353.251,199.978L422.525,80ZM410.977,80L418.367,80L349.094,199.978L341.704,199.978L410.977,80ZM399.429,80L406.82,80L337.547,199.978L330.156,199.978L399.429,80ZM560.012,153.709L560.012,154.932L514.964,199.978L508.458,199.978L560.012,148.427L560.012,150.476L680.019,81.194L680.019,84.427L560.012,153.709ZM560.012,197.359L557.392,199.978L550.887,199.978L560.012,190.853L560.012,196.664L680.019,127.382L680.019,130.615L560.012,199.897L560.012,197.359ZM639.876,199.978L634.275,199.978L680.019,173.57L680.019,176.803L639.876,199.978ZM619.874,199.978L614.274,199.978L680.019,162.023L680.019,165.256L619.874,199.978ZM486.678,199.978L480.172,199.978L560.012,120.142L560.012,126.648L486.678,199.978ZM599.873,199.978L594.273,199.978L680.019,150.476L680.019,153.709L599.873,199.978ZM579.872,199.978L574.272,199.978L680.019,138.929L680.019,142.162L579.872,199.978Z" style="fill:rgb(117,59,189);"/>
    </g>
    <g transform="matrix(1,0,0,1,0,0.0109227)">
        <path d="M1297.96,117.926L1319.95,199.978L1311.46,199.978L1280,82.589L1280,89.544L1309.59,199.978L1301.1,199.978L1280,121.226L1280,128.181L1299.24,199.978L1290.75,199.978L1280,159.863L1280,166.818L1288.89,199.978L1280.4,199.978L1280,198.5L1280,199.978L1274,199.978L1204.73,80L1212.12,80L1280,197.57L1280,190.37L1216.28,80L1223.67,80L1280,177.57L1280,170.37L1227.82,80L1235.21,80L1280,157.57L1280,150.37L1239.37,80L1246.76,80L1280,137.57L1280,130.37L1250.92,80L1258.31,80L1280,117.57L1280,110.37L1262.47,80L1269.86,80L1280,97.57L1280,90.37L1274.01,80L1287.8,80L1296.29,111.686L1296.29,117.926L1297.96,117.926ZM1296.29,104.732L1289.66,80L1298.15,80L1300.81,89.926L1296.29,89.926L1296.29,104.732ZM1302.67,89.926L1300.01,80L1308.5,80L1311.16,89.926L1302.67,89.926ZM1313.03,89.926L1310.37,80L1318.86,80L1321.52,89.926L1313.03,89.926ZM1323.38,89.926L1320.72,80L1329.21,80L1361.36,199.978L1352.87,199.978L1328.29,108.24L1328.29,89.926L1323.38,89.926ZM1328.29,115.194L1351.01,199.978L1342.52,199.978L1320.53,117.926L1328.29,117.926L1328.29,115.194ZM1318.67,117.926L1340.65,199.978L1332.16,199.978L1310.18,117.926L1318.67,117.926ZM1308.31,117.926L1330.3,199.978L1321.81,199.978L1299.82,117.926L1308.31,117.926ZM820.06,89.926L799.98,84.546L799.98,83.511L823.924,89.926L820.06,89.926ZM848.275,96.451L919.981,115.663L919.981,115.835L1039.99,185.117L1039.99,188.35L919.981,119.068L919.981,116.698L848.275,97.486L848.275,96.451ZM848.275,106.803L919.981,126.016L919.981,127.051L848.275,107.839L848.275,106.803ZM848.275,117.156L919.981,136.369L919.981,137.404L847.284,117.926L848.275,117.926L848.275,117.156ZM818.275,110.153L799.98,105.252L799.98,104.216L818.275,109.118L818.275,110.153ZM818.275,99.801L799.98,94.899L799.98,93.863L818.275,98.765L818.275,99.801ZM936.288,116.935L919.981,107.521L919.981,106.346L821.652,80L825.516,80L919.981,105.31L919.981,104.288L936.288,113.702L936.288,116.935ZM936.288,105.388L919.981,95.974L919.981,95.993L860.292,80L864.156,80L919.981,94.958L919.981,92.741L936.288,102.155L936.288,105.388ZM936.288,93.841L919.981,84.427L919.981,81.194L936.288,90.608L936.288,93.841ZM949.508,89.926L932.315,80L937.915,80L955.108,89.926L949.508,89.926ZM968.288,97.535L1039.99,138.929L1039.99,134.285L1105.68,199.978L1099.18,199.978L1039.99,140.79L1039.99,142.162L968.288,100.768L968.288,97.535ZM968.288,109.082L1039.99,150.476L1039.99,148.427L1091.54,199.978L1085.04,199.978L1039.99,154.932L1039.99,153.709L968.288,112.315L968.288,109.082ZM963.606,117.926L1039.99,162.023L1039.99,162.569L1077.4,199.978L1070.89,199.978L1039.99,169.074L1039.99,165.256L958.006,117.926L963.606,117.926ZM943.605,117.926L1039.99,173.57L1039.99,176.711L1063.26,199.978L1056.75,199.978L1039.99,183.216L1039.99,176.803L938.005,117.926L943.605,117.926ZM1056.29,114.663L1039.99,98.364L1039.99,95.974L1012.32,80L1017.92,80L1039.99,92.741L1039.99,91.858L1056.29,108.157L1056.29,114.663ZM1056.29,100.521L1039.99,84.221L1039.99,84.427L1032.32,80L1037.92,80L1039.99,81.194L1039.99,80L1042.27,80L1056.29,94.015L1056.29,100.521ZM1059.84,89.926L1049.91,80L1056.41,80L1066.34,89.926L1059.84,89.926ZM1073.98,89.926L1064.05,80L1070.56,80L1080.48,89.926L1073.98,89.926ZM1088.12,89.926L1078.19,80L1084.7,80L1160,155.29L1160,149.724L1189.01,199.978L1181.62,199.978L1160,162.524L1160,161.795L1088.29,90.092L1088.29,89.926L1088.12,89.926ZM1088.29,97.729L1160,169.432L1160,169.724L1177.46,199.978L1170.07,199.978L1160,182.524L1160,175.937L1088.29,104.235L1088.29,97.729ZM1088.29,111.871L1160,183.574L1160,189.724L1165.91,199.978L1155.75,199.978L1073.69,117.926L1080.2,117.926L1160,197.716L1160,190.079L1087.84,117.926L1088.29,117.926L1088.29,111.871ZM1066.06,117.926L1148.11,199.978L1141.61,199.978L1059.55,117.926L1066.06,117.926ZM1176.29,110.744L1160,82.524L1160,80L1165.93,80L1176.29,97.944L1176.29,110.744ZM1176.29,90.744L1170.09,80L1177.48,80L1183.21,89.926L1176.29,89.926L1176.29,90.744ZM1187.36,89.926L1181.63,80L1189.02,80L1194.75,89.926L1187.36,89.926ZM1198.91,89.926L1193.18,80L1200.57,80L1206.3,89.926L1198.91,89.926ZM1208.29,93.366L1269.84,199.978L1262.45,199.978L1208.29,106.166L1208.29,93.366ZM1208.29,113.366L1258.3,199.978L1250.91,199.978L1203.53,117.926L1208.29,117.926L1208.29,113.366ZM1199.37,117.926L1246.75,199.978L1239.36,199.978L1191.98,117.926L1199.37,117.926ZM1187.83,117.926L1235.2,199.978L1227.81,199.978L1180.43,117.926L1187.83,117.926ZM1339.56,80L1371.71,199.978L1363.22,199.978L1331.07,80L1339.56,80ZM1349.92,80L1382.07,199.978L1373.58,199.978L1341.43,80L1349.92,80ZM1360.27,80L1392.42,199.978L1383.93,199.978L1351.78,80L1360.27,80ZM1519.98,80L1519.98,199.978L1394.28,199.978L1362.13,80L1370.62,80L1399.97,189.508L1399.97,182.553L1372.49,80L1380.98,80L1399.97,150.871L1399.97,143.916L1382.84,80L1391.33,80L1399.97,112.234L1399.97,105.279L1393.19,80L1519.98,80ZM1454.3,89.926L1412.3,89.926L1412.3,117.926L1454.3,117.926L1454.3,89.926ZM799.98,197.391L809.636,199.978L805.772,199.978L799.98,198.426L799.98,197.391ZM799.98,187.038L848.275,199.978L844.411,199.978L799.98,188.074L799.98,187.038ZM799.98,176.686L886.914,199.978L883.05,199.978L799.98,177.721L799.98,176.686ZM799.98,166.333L919.981,198.485L919.981,196.664L925.723,199.978L920.122,199.978L919.981,199.897L919.981,199.521L799.98,167.368L799.98,166.333ZM799.98,155.98L919.981,188.133L919.981,185.117L945.724,199.978L940.123,199.978L919.981,188.35L919.981,189.168L799.98,157.015L799.98,155.98ZM799.98,145.627L919.981,177.78L919.981,178.815L799.98,146.663L799.98,145.627ZM799.98,135.275L919.981,167.427L919.981,168.462L799.98,136.31L799.98,135.275ZM799.98,124.922L919.981,157.074L919.981,158.11L799.98,125.957L799.98,124.922ZM799.98,114.569L919.981,146.721L919.981,147.757L799.98,115.604L799.98,114.569ZM902.795,80L919.981,84.605L919.981,85.64L898.931,80L902.795,80ZM957.916,80L1039.99,127.382L1039.99,130.615L952.316,80L957.916,80ZM977.917,80L1039.99,115.835L1039.99,119.068L972.317,80L977.917,80ZM997.918,80L1039.99,104.288L1039.99,106L1133.97,199.978L1127.46,199.978L1039.99,112.506L1039.99,107.521L992.318,80L997.918,80ZM1112.99,80L1160,127.005L1160,129.724L1200.56,199.978L1193.17,199.978L1160,142.524L1160,147.653L1092.34,80L1098.84,80L1160,141.148L1160,133.511L1106.48,80L1112.99,80ZM1127.13,80L1160,112.863L1160,109.724L1212.11,199.978L1204.71,199.978L1160,122.524L1160,119.369L1120.62,80L1127.13,80ZM1155.41,80L1160,84.579L1160,89.724L1223.65,199.978L1216.26,199.978L1160,102.524L1160,105.227L1134.77,80L1141.27,80L1160,98.721L1160,91.084L1148.91,80L1155.41,80ZM1020.13,199.978L919.981,142.162L919.981,138.929L1025.73,199.978L1020.13,199.978ZM960.124,199.978L919.981,176.803L919.981,173.57L965.725,199.978L960.124,199.978ZM1039.99,197.359L1039.99,199.897L919.981,130.615L919.981,127.382L1039.99,196.664L1039.99,190.853L1049.11,199.978L1042.61,199.978L1039.99,197.359ZM1000.13,199.978L919.981,153.709L919.981,150.476L1005.73,199.978L1000.13,199.978ZM1113.32,199.978L1039.99,126.648L1039.99,120.142L1119.83,199.978L1113.32,199.978ZM980.126,199.978L919.981,165.256L919.981,162.023L985.726,199.978L980.126,199.978Z" style="fill:rgb(0,133,120);"/>
    </g>
    <g transform="matrix(1,0,0,1,-285.161,-730.553)">
        <g transform="matrix(24,0,0,24,417.582,842.893)">
        </g>
        <text x="377.539px" y="842.893px" style="font-family:'ArialMT', 'Arial';font-size:24px;">100</text>
    </g>
    <g transform="matrix(1,0,0,1,-165.201,-730.553)">
        <g transform="matrix(24,0,0,24,410.908,842.893)">
        </g>
        <text x="384.213px" y="842.893px" style="font-family:'ArialMT', 'Arial';font-size:24px;">82</text>
    </g>
    <g transform="matrix(1,0,0,1,-45.1606,-730.553)">
        <g transform="matrix(24,0,0,24,410.908,842.893)">
        </g>
        <text x="384.213px" y="842.893px" style="font-family:'ArialMT', 'Arial';font-size:24px;">64</text>
    </g>
    <g transform="matrix(1,0,0,1,74.7987,-730.553)">
        <g transform="matrix(24,0,0,24,410.908,842.893)">
        </g>
        <text x="384.213px" y="842.893px" style="font-family:'ArialMT', 'Arial';font-size:24px;">46</text>
    </g>
    <g transform="matrix(1,0,0,1,194.839,-730.553)">
        <g transform="matrix(24,0,0,24,410.908,842.893)">
        </g>
        <text x="384.213px" y="842.893px" style="font-family:'ArialMT', 'Arial';font-size:24px;">28</text>
    </g>
    <g transform="matrix(1,0,0,1,314.799,-730.553)">
        <g transform="matrix(24,0,0,24,410.908,842.893)">
        </g>
        <text x="384.213px" y="842.893px" style="font-family:'ArialMT', 'Arial';font-size:24px;">10</text>
    </g>
    <g transform="matrix(1,0,0,1,434.839,-730.553)">
        <g transform="matrix(24,0,0,24,410.908,842.893)">
        </g>
        <text x="384.213px" y="842.893px" style="font-family:'ArialMT', 'Arial';font-size:24px;">10</text>
    </g>
    <g transform="matrix(1,0,0,1,554.799,-730.553)">
        <g transform="matrix(24,0,0,24,410.908,842.893)">
        </g>
        <text x="384.213px" y="842.893px" style="font-family:'ArialMT', 'Arial';font-size:24px;">28</text>
    </g>
    <g transform="matrix(1,0,0,1,674.839,-730.553)">
        <g transform="matrix(24,0,0,24,410.908,842.893)">
        </g>
        <text x="384.213px" y="842.893px" style="font-family:'ArialMT', 'Arial';font-size:24px;">46</text>
    </g>
    <g transform="matrix(1,0,0,1,794.799,-730.553)">
        <g transform="matrix(24,0,0,24,410.908,842.893)">
        </g>
        <text x="384.213px" y="842.893px" style="font-family:'ArialMT', 'Arial';font-size:24px;">64</text>
    </g>
    <g transform="matrix(1,0,0,1,914.839,-730.553)">
        <g transform="matrix(24,0,0,24,410.908,842.893)">
        </g>
        <text x="384.213px" y="842.893px" style="font-family:'ArialMT', 'Arial';font-size:24px;">82</text>
    </g>
    <g transform="matrix(1,0,0,1,1034.8,-730.553)">
        <g transform="matrix(24,0,0,24,417.582,842.893)">
        </g>
        <text x="377.539px" y="842.893px" style="font-family:'ArialMT', 'Arial';font-size:24px;">100</text>
    </g>
</svg>
