<?xml version="1.0" encoding="UTF-8" standalone="no"?>
<!DOCTYPE svg PUBLIC "-//W3C//DTD SVG 1.1//EN" "http://www.w3.org/Graphics/SVG/1.1/DTD/svg11.dtd">
<svg width="100%" height="100%" viewBox="0 0 1600 320" version="1.1" xmlns="http://www.w3.org/2000/svg" xmlns:xlink="http://www.w3.org/1999/xlink" xml:space="preserve" xmlns:serif="http://www.serif.com/" style="fill-rule:evenodd;clip-rule:evenodd;stroke-linejoin:round;stroke-miterlimit:2;">
    <g transform="matrix(1,0,0,1,-280,-1.13687e-13)">
        <g id="Red-100" serif:id="Red 100" transform="matrix(1,0,0,1,87,-196.77)">
            <rect x="273" y="263" width="120" height="120" style="fill:rgb(222,40,23);"/>
        </g>
        <g transform="matrix(1,0,0,1,-5.13535,-744.384)">
            <g transform="matrix(24,0,0,24,417.582,842.893)">
            </g>
            <text x="377.539px" y="842.893px" style="font-family:'ArialMT', 'Arial';font-size:24px;fill:white;">100</text>
        </g>
        <g id="Red-64" serif:id="Red 64" transform="matrix(1,0,0,1,327,-196.77)">
            <rect x="273" y="263" width="120" height="120" style="fill:rgb(234,118,107);"/>
        </g>
        <g id="Red-82" serif:id="Red 82" transform="matrix(1,0,0,1,207,-196.77)">
            <rect x="273" y="263" width="120" height="120" style="fill:rgb(228,79,65);"/>
        </g>
        <g id="Red-46" serif:id="Red 46" transform="matrix(1,0,0,1,447,-196.77)">
            <rect x="273" y="263" width="120" height="120" style="fill:rgb(240,156,149);"/>
        </g>
        <g id="Red-28" serif:id="Red 28" transform="matrix(1,0,0,1,567,-196.77)">
            <rect x="273" y="263" width="120" height="120" style="fill:rgb(246,195,190);"/>
        </g>
        <g id="Red-10" serif:id="Red 10" transform="matrix(1,0,0,1,687,-196.77)">
            <rect x="273" y="263" width="120" height="120" style="fill:rgb(252,233,231);"/>
        </g>
        <g id="Cyan-10" serif:id="Cyan 10" transform="matrix(1,0,0,1,807,-196.77)">
            <rect x="273" y="263" width="120" height="120" style="fill:rgb(231,245,251);"/>
        </g>
        <g id="Cyan-28" serif:id="Cyan 28" transform="matrix(1,0,0,1,927,-196.77)">
            <rect x="273" y="263" width="120" height="120" style="fill:rgb(189,228,243);"/>
        </g>
        <g id="Cyan-46" serif:id="Cyan 46" transform="matrix(1,0,0,1,1047,-196.77)">
            <rect x="273" y="263" width="120" height="120" style="fill:rgb(146,211,235);"/>
        </g>
        <g id="Cyan-64" serif:id="Cyan 64" transform="matrix(1,0,0,1,1167,-196.77)">
            <rect x="273" y="263" width="120" height="120" style="fill:rgb(104,194,228);"/>
        </g>
        <g id="Cyan-82" serif:id="Cyan 82" transform="matrix(1,0,0,1,1287,-196.77)">
            <rect x="273" y="263" width="120" height="120" style="fill:rgb(61,176,220);"/>
        </g>
        <g id="Cyan-100" serif:id="Cyan 100" transform="matrix(1,0,0,1,1407,-196.77)">
            <rect x="273" y="263" width="120" height="120" style="fill:rgb(18,159,212);"/>
        </g>
        <g transform="matrix(1,0,0,1,114.824,-744.384)">
            <g transform="matrix(24,0,0,24,410.908,842.893)">
            </g>
            <text x="384.213px" y="842.893px" style="font-family:'ArialMT', 'Arial';font-size:24px;fill:white;">82</text>
        </g>
        <g transform="matrix(1,0,0,1,234.865,-744.384)">
            <g transform="matrix(24,0,0,24,410.908,842.893)">
            </g>
            <text x="384.213px" y="842.893px" style="font-family:'ArialMT', 'Arial';font-size:24px;fill:white;">64</text>
        </g>
        <g transform="matrix(1,0,0,1,354.824,-744.384)">
            <g transform="matrix(24,0,0,24,410.908,842.893)">
            </g>
            <text x="384.213px" y="842.893px" style="font-family:'ArialMT', 'Arial';font-size:24px;fill:rgb(2,1,2);">46</text>
        </g>
        <g transform="matrix(1,0,0,1,474.865,-744.384)">
            <g transform="matrix(24,0,0,24,410.908,842.893)">
            </g>
            <text x="384.213px" y="842.893px" style="font-family:'ArialMT', 'Arial';font-size:24px;fill:rgb(2,1,2);">28</text>
        </g>
        <g transform="matrix(1,0,0,1,594.824,-744.384)">
            <g transform="matrix(24,0,0,24,410.908,842.893)">
            </g>
            <text x="384.213px" y="842.893px" style="font-family:'ArialMT', 'Arial';font-size:24px;fill:rgb(2,1,2);">10</text>
        </g>
        <g transform="matrix(1,0,0,1,714.865,-744.384)">
            <g transform="matrix(24,0,0,24,410.908,842.893)">
            </g>
            <text x="384.213px" y="842.893px" style="font-family:'ArialMT', 'Arial';font-size:24px;fill:rgb(2,1,2);">10</text>
        </g>
        <g transform="matrix(1,0,0,1,834.824,-744.384)">
            <g transform="matrix(24,0,0,24,410.908,842.893)">
            </g>
            <text x="384.213px" y="842.893px" style="font-family:'ArialMT', 'Arial';font-size:24px;fill:rgb(2,1,2);">28</text>
        </g>
        <g transform="matrix(1,0,0,1,954.865,-744.384)">
            <g transform="matrix(24,0,0,24,410.908,842.893)">
            </g>
            <text x="384.213px" y="842.893px" style="font-family:'ArialMT', 'Arial';font-size:24px;fill:rgb(2,1,2);">46</text>
        </g>
        <g transform="matrix(1,0,0,1,1074.82,-744.384)">
            <g transform="matrix(24,0,0,24,410.908,842.893)">
            </g>
            <text x="384.213px" y="842.893px" style="font-family:'ArialMT', 'Arial';font-size:24px;fill:white;">64</text>
        </g>
        <g transform="matrix(1,0,0,1,1194.86,-744.384)">
            <g transform="matrix(24,0,0,24,410.908,842.893)">
            </g>
            <text x="384.213px" y="842.893px" style="font-family:'ArialMT', 'Arial';font-size:24px;fill:white;">82</text>
        </g>
        <g transform="matrix(1,0,0,1,1314.82,-744.384)">
            <g transform="matrix(24,0,0,24,417.582,842.893)">
            </g>
            <text x="377.539px" y="842.893px" style="font-family:'ArialMT', 'Arial';font-size:24px;fill:white;">100</text>
        </g>
        <g transform="matrix(1,0,0,1,-5.13535,-789.19)">
            <g transform="matrix(24,0,0,24,457.625,842.893)">
            </g>
            <text x="377.539px" y="842.893px" style="font-family:'ArialMT', 'Arial';font-size:24px;">de2817</text>
        </g>
        <g transform="matrix(1,0,0,1,114.824,-789.19)">
            <g transform="matrix(24,0,0,24,457.619,842.893)">
            </g>
            <text x="384.213px" y="842.893px" style="font-family:'ArialMT', 'Arial';font-size:24px;">e44f41</text>
        </g>
        <g transform="matrix(1,0,0,1,234.865,-789.19)">
            <g transform="matrix(24,0,0,24,464.298,842.893)">
            </g>
            <text x="384.213px" y="842.893px" style="font-family:'ArialMT', 'Arial';font-size:24px;">ea766b</text>
        </g>
        <g transform="matrix(1,0,0,1,354.824,-789.19)">
            <g transform="matrix(24,0,0,24,456.271,842.893)">
            </g>
            <text x="384.213px" y="842.893px" style="font-family:'ArialMT', 'Arial';font-size:24px;">f09c95</text>
        </g>
        <g transform="matrix(1,0,0,1,474.865,-789.19)">
            <g transform="matrix(24,0,0,24,456.271,842.893)">
            </g>
            <text x="384.213px" y="842.893px" style="font-family:'ArialMT', 'Arial';font-size:24px;">f6c3be</text>
        </g>
        <g transform="matrix(1,0,0,1,594.824,-789.19)">
            <g transform="matrix(24,0,0,24,456.271,842.893)">
            </g>
            <text x="384.213px" y="842.893px" style="font-family:'ArialMT', 'Arial';font-size:24px;">fce9e7</text>
        </g>
        <g transform="matrix(1,0,0,1,714.865,-789.19)">
            <g transform="matrix(24,0,0,24,450.939,842.893)">
            </g>
            <text x="384.213px" y="842.893px" style="font-family:'ArialMT', 'Arial';font-size:24px;">e7f5fb</text>
        </g>
        <g transform="matrix(1,0,0,1,834.824,-789.19)">
            <g transform="matrix(24,0,0,24,457.619,842.893)">
            </g>
            <text x="384.213px" y="842.893px" style="font-family:'ArialMT', 'Arial';font-size:24px;">bde4f3</text>
        </g>
        <g transform="matrix(1,0,0,1,954.865,-789.19)">
            <g transform="matrix(24,0,0,24,464.298,842.893)">
            </g>
            <text x="384.213px" y="842.893px" style="font-family:'ArialMT', 'Arial';font-size:24px;">92d3eb</text>
        </g>
        <g transform="matrix(1,0,0,1,1074.82,-789.19)">
            <g transform="matrix(24,0,0,24,462.951,842.893)">
            </g>
            <text x="384.213px" y="842.893px" style="font-family:'ArialMT', 'Arial';font-size:24px;">68c2e4</text>
        </g>
        <g transform="matrix(1,0,0,1,1194.86,-789.19)">
            <g transform="matrix(24,0,0,24,462.951,842.893)">
            </g>
            <text x="384.213px" y="842.893px" style="font-family:'ArialMT', 'Arial';font-size:24px;">3db0dc</text>
        </g>
        <g transform="matrix(1,0,0,1,1314.82,-789.19)">
            <g transform="matrix(24,0,0,24,450.945,842.893)">
            </g>
            <text x="377.539px" y="842.893px" style="font-family:'ArialMT', 'Arial';font-size:24px;">129fd4</text>
        </g>
        <g transform="matrix(1,0,0,0.930233,0,-688.188)">
            <rect x="360" y="940" width="1440" height="43" style="fill:url(#_Linear1);"/>
        </g>
        <g transform="matrix(1,0,0,1,238.09,-734.648)">
            <g transform="matrix(40,0,0,40,194.566,1010)">
            </g>
            <text x="119px" y="1010px" style="font-family:'Arial-BoldMT', 'Arial';font-weight:700;font-size:40px;">Red</text>
        </g>
        <g transform="matrix(1,0,0,1,1305.28,-734.648)">
            <g transform="matrix(40,0,0,40,496.305,1010)">
            </g>
            <text x="398.492px" y="1010px" style="font-family:'Arial-BoldMT', 'Arial';font-weight:700;font-size:40px;">Cyan</text>
        </g>
    </g>
    <defs>
        <linearGradient id="_Linear1" x1="0" y1="0" x2="1" y2="0" gradientUnits="userSpaceOnUse" gradientTransform="matrix(1440,0,0,43,360,961.5)"><stop offset="0" style="stop-color:rgb(222,40,23);stop-opacity:1"/><stop offset="0.5" style="stop-color:white;stop-opacity:1"/><stop offset="1" style="stop-color:rgb(18,159,212);stop-opacity:1"/></linearGradient>
    </defs>
</svg>
