<?xml version="1.0" encoding="UTF-8" standalone="no"?>
<!DOCTYPE svg PUBLIC "-//W3C//DTD SVG 1.1//EN" "http://www.w3.org/Graphics/SVG/1.1/DTD/svg11.dtd">
<svg width="100%" height="100%" viewBox="0 0 1360 580" version="1.1" xmlns="http://www.w3.org/2000/svg" xmlns:xlink="http://www.w3.org/1999/xlink" xml:space="preserve" xmlns:serif="http://www.serif.com/" style="fill-rule:evenodd;clip-rule:evenodd;stroke-linejoin:round;stroke-miterlimit:2;">
    <g transform="matrix(1,0,0,1,-41.9102,-754.648)">
        <g transform="matrix(40,0,0,40,243.473,1010)">
        </g>
        <text x="119px" y="1010px" style="font-family:'Arial-BoldMT', 'Arial';font-weight:700;font-size:40px;">Purple</text>
    </g>
    <g transform="matrix(1,0,0,1,-41.9102,-474.679)">
        <g transform="matrix(40,0,0,40,205.68,1010)">
        </g>
        <text x="119px" y="1010px" style="font-family:'Arial-BoldMT', 'Arial';font-weight:700;font-size:40px;">Blue</text>
    </g>
    <g transform="matrix(1,0,0,1,0,-269.784)">
        <g transform="matrix(1,0,0,1,0.268703,276.016)">
            <path d="M1178.33,93.854L1159.7,96.803L1159.7,95.79L1178.33,92.841L1178.33,93.854ZM1196.74,89.926L1259.29,80.021L1265.68,80.021L1203.13,89.926L1196.74,89.926ZM1208.33,98.215L1279.71,86.911L1279.71,87.923L1208.33,99.228L1208.33,98.215ZM1208.33,108.34L1279.71,97.036L1279.71,98.048L1208.33,109.352L1208.33,108.34ZM1178.33,114.103L1159.7,117.052L1159.7,116.039L1178.33,113.091L1178.33,114.103ZM1178.33,103.978L1159.7,106.927L1159.7,105.915L1178.33,102.966L1178.33,103.978ZM1056.34,93.132L1039.67,98.549L1039.67,96.446L1056.34,91.029L1056.34,93.132ZM1059.73,89.926L1090.22,80.021L1096.69,80.021L1066.21,89.926L1059.73,89.926ZM1088.34,91.147L1122.59,80.021L1129.06,80.021L1088.34,93.25L1088.34,91.147ZM1088.34,101.662L1154.95,80.021L1159.67,80.021L1159.67,80.589L1088.34,103.765L1088.34,101.662ZM1088.34,112.177L1159.67,89.001L1159.67,91.104L1088.34,114.28L1088.34,112.177ZM1077.11,117.926L1039.67,130.093L1039.67,127.99L1070.64,117.926L1077.11,117.926ZM1056.34,114.161L1039.67,119.578L1039.67,117.475L1056.34,112.059L1056.34,114.161ZM1056.34,103.647L1039.67,109.063L1039.67,106.961L1056.34,101.544L1056.34,103.647ZM936.338,101.013L919.689,109.495L919.689,109.911L799.682,197.096L799.682,195.958L795.642,199.999L788.57,199.999L799.719,188.85L799.719,192.124L919.689,104.967L919.689,106.128L936.338,97.646L936.338,101.013ZM951.49,89.926L970.932,80.021L977.54,80.021L958.098,89.926L951.49,89.926ZM968.338,92.565L992.96,80.021L999.568,80.021L968.338,95.932L968.338,92.565ZM968.338,103.788L1014.99,80.021L1021.6,80.021L968.338,107.155L968.338,103.788ZM968.338,115.012L1037.02,80.021L1039.64,80.021L1039.64,82.051L919.689,143.165L919.689,146.992L846.727,199.999L839.922,199.999L919.633,142.089L919.633,139.826L962.618,117.926L968.338,117.926L968.338,115.012ZM947.198,117.926L919.689,131.942L919.689,134.632L829.714,199.999L822.908,199.999L919.633,129.728L919.633,128.603L940.59,117.926L947.198,117.926ZM936.338,112.236L919.689,120.718L919.689,122.271L812.7,199.999L805.894,199.999L919.689,117.327L919.689,117.351L936.338,108.869L936.338,112.236ZM816.338,98.472L799.719,110.545L799.719,111.07L710.786,199.999L703.715,199.999L799.719,103.999L799.719,105.601L816.338,93.528L816.338,98.472ZM821.296,89.926L834.93,80.021L841.735,80.021L828.101,89.926L821.296,89.926ZM838.309,89.926L851.944,80.021L858.749,80.021L845.115,89.926L838.309,89.926ZM848.338,95.001L868.957,80.021L875.763,80.021L848.338,99.945L848.338,95.001ZM848.338,107.361L885.971,80.021L892.777,80.021L848.338,112.305L848.338,107.361ZM840.601,117.926L799.719,147.627L799.719,153.496L753.214,199.999L746.143,199.999L799.682,146.462L799.682,142.709L833.796,117.926L840.601,117.926ZM823.588,117.926L799.719,135.266L799.719,139.354L739.071,199.999L732,199.999L799.682,132.32L799.682,130.349L816.782,117.926L823.588,117.926ZM816.338,110.832L799.719,122.906L799.719,125.212L724.929,199.999L717.857,199.999L799.682,118.178L799.682,117.989L816.338,105.888L816.338,110.832ZM698.275,99.375L679.713,117.936L679.713,114.237L617.397,199.999L609.98,199.999L679.713,104.03L679.713,110.865L698.275,92.304L698.275,99.375ZM700.653,89.926L710.559,80.021L717.63,80.021L707.724,89.926L700.653,89.926ZM714.796,89.926L724.702,80.021L731.773,80.021L721.867,89.926L714.796,89.926ZM728.275,90.589L738.844,80.021L745.915,80.021L728.275,97.66L728.275,90.589ZM728.275,104.731L752.987,80.021L760.058,80.021L728.275,111.802L728.275,104.731ZM722.151,117.926L679.713,160.361L679.713,165.274L654.481,199.999L647.064,199.999L679.713,155.066L679.713,153.29L715.079,117.926L722.151,117.926ZM708.008,117.926L679.713,146.22L679.713,148.261L642.12,199.999L634.703,199.999L679.713,138.054L679.713,139.149L700.937,117.926L708.008,117.926ZM698.275,113.517L679.713,132.078L679.713,131.249L629.758,199.999L622.342,199.999L679.713,121.042L679.713,125.007L698.275,106.446L698.275,113.517ZM590.504,117.926L559.706,160.311L559.706,155.415L536.987,199.999L529.13,199.999L559.706,139.998L559.706,133.39L525.763,199.999L517.906,199.999L559.706,117.973L559.706,116.079L576.288,93.259L576.288,103.466L559.706,126.286L559.706,133.091L576.288,110.271L576.288,117.926L578.142,117.926L559.706,143.299L559.706,150.104L583.087,117.926L590.504,117.926ZM578.71,89.926L585.907,80.021L593.324,80.021L586.126,89.926L578.71,89.926ZM591.071,89.926L598.268,80.021L605.685,80.021L598.487,89.926L591.071,89.926ZM603.432,89.926L610.629,80.021L618.046,80.021L608.288,93.45L608.288,89.926L603.432,89.926ZM608.288,100.255L622.991,80.021L630.407,80.021L608.288,110.462L608.288,100.255ZM608.288,117.267L635.352,80.021L642.769,80.021L559.706,194.335L559.706,199.465L559.434,199.999L551.578,199.999L559.706,184.048L559.706,184.128L607.809,117.926L608.288,117.926L608.288,117.267ZM602.865,117.926L559.706,177.323L559.706,177.44L548.21,199.999L540.354,199.999L559.706,162.023L559.706,167.116L595.448,117.926L602.865,117.926ZM456.288,94.056L439.7,126.608L439.7,131.632L417.482,199.999L409.07,199.999L439.7,105.747L439.7,111.191L455.584,80.021L463.44,80.021L458.392,89.926L456.288,89.926L456.288,94.056ZM461.76,89.926L466.808,80.021L474.664,80.021L469.616,89.926L461.76,89.926ZM472.984,89.926L478.031,80.021L485.888,80.021L480.84,89.926L472.984,89.926ZM484.208,89.926L489.255,80.021L497.112,80.021L488.288,97.336L488.288,89.926L484.208,89.926ZM488.288,103.944L500.479,80.021L508.336,80.021L447.195,199.999L439.7,199.999L439.7,199.291L481.163,117.926L488.288,117.926L488.288,103.944ZM477.795,117.926L439.7,192.683L439.7,196.347L438.513,199.999L430.101,199.999L439.7,170.462L439.7,163.989L427.997,199.999L419.586,199.999L439.7,138.105L439.7,133.216L456.288,100.663L456.288,116.081L439.7,148.633L439.7,155.241L458.715,117.926L466.572,117.926L439.7,170.658L439.7,177.266L469.939,117.926L477.795,117.926ZM336.288,93.918L319.693,144.985L319.693,139.58L310.122,199.999L301.01,199.999L319.693,82.058L319.693,86.743L321.877,80.021L330.289,80.021L319.693,112.627L319.693,119.1L332.393,80.021L340.804,80.021L337.585,89.926L336.288,89.926L336.288,93.918ZM339.689,89.926L342.908,80.021L351.32,80.021L348.101,89.926L339.689,89.926ZM350.204,89.926L353.423,80.021L361.835,80.021L358.616,89.926L350.204,89.926ZM360.719,89.926L363.938,80.021L372.35,80.021L368.288,92.52L368.288,89.926L360.719,89.926ZM368.288,98.993L374.453,80.021L382.865,80.021L343.876,199.999L335.464,199.999L362.135,117.926L368.288,117.926L368.288,98.993ZM360.032,117.926L333.36,199.999L324.949,199.999L351.62,117.926L360.032,117.926ZM349.517,117.926L322.845,199.999L311.135,199.999L319.693,145.975L319.693,151.457L336.288,100.391L336.288,117.926L339.001,117.926L319.693,177.342L319.693,183.814L341.105,117.926L349.517,117.926ZM221.871,117.926L208.87,199.999L199.757,199.999L216.288,95.647L216.288,117.926L221.871,117.926ZM217.194,89.926L218.763,80.021L227.876,80.021L226.307,89.926L217.194,89.926ZM227.32,89.926L228.889,80.021L238.001,80.021L236.432,89.926L227.32,89.926ZM237.445,89.926L239.014,80.021L248.126,80.021L246.557,89.926L237.445,89.926ZM247.57,89.926L249.139,80.021L258.251,80.021L239.245,199.999L230.133,199.999L243.134,117.926L248.288,117.926L248.288,89.926L247.57,89.926ZM242.121,117.926L229.12,199.999L220.008,199.999L233.009,117.926L242.121,117.926ZM231.996,117.926L218.995,199.999L209.883,199.999L222.884,117.926L231.996,117.926ZM207.625,80.021L199.731,129.852L199.731,136.247L208.638,80.021L217.75,80.021L199.731,193.769L199.731,200.021L79.731,200.021L79.731,199.999L79.719,199.999L79.719,80.021L207.625,80.021ZM134.3,89.926L92.3,89.926L92.3,117.926L134.3,117.926L134.3,89.926ZM1195.35,80.021L1201.74,80.021L1159.7,86.678L1159.7,85.665L1195.35,80.021ZM1057.86,80.021L1064.33,80.021L1039.67,88.034L1039.67,85.931L1057.86,80.021ZM948.904,80.021L955.512,80.021L919.633,98.301L919.633,97.591L799.682,184.735L799.682,181.816L781.499,199.999L774.428,199.999L799.719,174.708L799.719,179.764L919.689,92.606L919.689,94.905L948.904,80.021ZM926.875,80.021L933.484,80.021L919.633,87.078L919.633,85.231L799.682,172.375L799.682,167.675L767.356,199.999L760.285,199.999L799.719,160.567L799.719,167.403L919.689,80.246L919.689,83.682L926.875,80.021ZM902.985,80.021L909.79,80.021L799.682,160.014L799.682,155.07L902.985,80.021ZM817.916,80.021L824.722,80.021L799.682,98.212L799.682,96.966L696.643,199.999L689.572,199.999L799.719,89.858L799.719,93.241L817.916,80.021ZM795.414,80.021L799.719,80.021L799.719,80.88L800.902,80.021L807.708,80.021L799.682,85.851L799.682,82.824L682.501,199.999L679.713,199.999L679.713,199.298L679.203,199.999L671.787,199.999L679.713,189.091L679.713,195.716L795.414,80.021ZM767.129,80.021L774.201,80.021L679.713,174.503L679.713,181.574L781.272,80.021L788.343,80.021L679.713,188.645L679.713,182.286L666.842,199.999L659.426,199.999L679.713,172.079L679.713,167.432L767.129,80.021ZM682.274,80.021L689.345,80.021L679.713,89.652L679.713,96.723L696.416,80.021L703.488,80.021L679.713,103.794L679.713,97.225L605.036,199.999L597.619,199.999L679.713,87.018L679.713,82.581L682.274,80.021ZM672.436,80.021L679.713,80.021L679.713,80.213L592.675,199.999L585.258,199.999L672.436,80.021ZM660.075,80.021L667.491,80.021L580.313,199.999L572.897,199.999L660.075,80.021ZM647.713,80.021L655.13,80.021L567.952,199.999L560.535,199.999L647.713,80.021ZM573.546,80.021L580.962,80.021L559.706,109.274L559.706,111.365L514.539,199.999L506.682,199.999L559.706,95.948L559.706,99.067L573.546,80.021ZM556.599,80.021L559.706,80.021L559.706,82.055L561.184,80.021L568.601,80.021L559.706,92.262L559.706,89.34L503.315,199.999L495.458,199.999L556.599,80.021ZM545.375,80.021L553.231,80.021L492.091,199.999L484.234,199.999L545.375,80.021ZM534.151,80.021L542.007,80.021L480.867,199.999L473.011,199.999L534.151,80.021ZM522.927,80.021L530.783,80.021L469.643,199.999L461.787,199.999L522.927,80.021ZM511.703,80.021L519.56,80.021L458.419,199.999L450.563,199.999L511.703,80.021ZM437.545,80.021L440.992,80.021L439.7,82.558L439.7,89.166L444.36,80.021L452.216,80.021L439.7,104.583L439.7,99.275L406.967,199.999L398.555,199.999L437.545,80.021ZM427.03,80.021L435.441,80.021L396.452,199.999L388.04,199.999L427.03,80.021ZM416.514,80.021L424.926,80.021L385.937,199.999L377.525,199.999L416.514,80.021ZM405.999,80.021L414.411,80.021L375.421,199.999L367.01,199.999L405.999,80.021ZM395.484,80.021L403.896,80.021L364.906,199.999L356.494,199.999L395.484,80.021ZM384.969,80.021L393.381,80.021L354.391,199.999L345.979,199.999L384.969,80.021ZM319.693,80.021L319.774,80.021L319.693,80.27L319.693,80.021ZM309.89,80.021L319.003,80.021L299.997,199.999L290.884,199.999L309.89,80.021ZM299.765,80.021L308.877,80.021L289.871,199.999L280.759,199.999L299.765,80.021ZM289.64,80.021L298.752,80.021L279.746,199.999L270.634,199.999L289.64,80.021ZM279.515,80.021L288.627,80.021L269.621,199.999L260.509,199.999L279.515,80.021ZM269.39,80.021L278.502,80.021L259.496,199.999L250.384,199.999L269.39,80.021ZM259.264,80.021L268.377,80.021L249.371,199.999L240.258,199.999L259.264,80.021ZM919.633,196.475L914.782,199.999L907.977,199.999L919.689,191.49L919.689,195.914L1039.64,134.8L1039.64,138.167L919.633,199.309L919.633,196.475ZM1159.7,198.049L1159.7,197.037L1279.71,178.033L1279.71,179.045L1159.7,198.049ZM1159.7,177.8L1159.7,176.787L1279.71,157.783L1279.71,158.796L1159.7,177.8ZM1159.7,157.55L1159.7,156.538L1279.71,137.534L1279.71,138.547L1159.7,157.55ZM1159.7,147.426L1159.7,146.413L1279.71,127.41L1279.71,128.422L1159.7,147.426ZM1159.7,137.301L1159.7,136.289L1279.71,117.285L1279.71,118.297L1159.7,137.301ZM1159.7,127.177L1159.7,126.164L1279.71,107.16L1279.71,108.173L1159.7,127.177ZM1279.71,198.282L1279.71,199.295L1275.26,199.999L1268.87,199.999L1279.71,198.282ZM1159.7,187.924L1159.7,186.912L1279.71,167.908L1279.71,168.921L1159.7,187.924ZM1159.7,167.675L1159.7,166.663L1279.71,147.659L1279.71,148.671L1159.7,167.675ZM1211.33,199.999L1204.93,199.999L1279.71,188.157L1279.71,189.17L1211.33,199.999ZM919.633,154.416L919.633,151.05L1039.64,89.907L1039.64,93.274L919.633,154.416ZM1039.64,190.916L1039.64,194.283L1028.42,199.999L1021.81,199.999L1039.64,190.916ZM897.768,199.999L890.963,199.999L919.689,179.129L919.689,184.074L897.768,199.999ZM880.755,199.999L873.949,199.999L919.689,166.769L919.689,171.713L880.755,199.999ZM940.307,199.999L933.699,199.999L1039.64,146.023L1039.64,149.39L940.307,199.999ZM984.363,199.999L977.755,199.999L1039.64,168.469L1039.64,171.836L984.363,199.999ZM962.335,199.999L955.727,199.999L1039.64,157.246L1039.64,160.613L962.335,199.999ZM919.633,188.086L919.633,184.719L1039.64,123.577L1039.64,126.944L919.633,188.086ZM919.633,176.863L919.633,173.496L1039.64,112.354L1039.64,115.721L919.633,176.863ZM863.741,199.999L856.936,199.999L919.689,154.408L919.689,159.353L863.741,199.999ZM1006.39,199.999L999.783,199.999L1039.64,179.692L1039.64,183.059L1006.39,199.999ZM919.633,165.64L919.633,162.273L1039.64,101.13L1039.64,104.497L919.633,165.64ZM1159.67,194.147L1159.67,196.249L1148.13,199.999L1141.66,199.999L1159.67,194.147ZM1115.77,199.999L1109.3,199.999L1159.67,183.632L1159.67,185.735L1115.77,199.999ZM1083.4,199.999L1076.93,199.999L1159.67,173.117L1159.67,175.22L1083.4,199.999ZM1039.67,193.18L1039.67,191.077L1159.67,152.088L1159.67,154.191L1039.67,193.18ZM1039.67,182.665L1039.67,180.563L1159.67,141.574L1159.67,143.677L1039.67,182.665ZM1039.67,172.151L1039.67,170.048L1159.67,131.059L1159.67,133.162L1039.67,172.151ZM1039.67,161.636L1039.67,159.533L1159.67,120.545L1159.67,122.647L1039.67,161.636ZM1051.04,199.999L1044.57,199.999L1159.67,162.603L1159.67,164.706L1051.04,199.999ZM1039.67,151.122L1039.67,149.019L1159.67,110.03L1159.67,112.133L1039.67,151.122ZM1039.67,140.607L1039.67,138.504L1159.67,99.515L1159.67,101.618L1039.67,140.607Z" style="fill:rgb(117,59,189);"/>
        </g>
        <g transform="matrix(1,0,0,1,0,-390)">
            <g transform="matrix(1,-4.44089e-16,4.44089e-16,1,-165.176,-64.3839)">
                <g transform="matrix(24,0,0,24,410.908,842.893)">
                </g>
                <text x="384.213px" y="842.893px" style="font-family:'ArialMT', 'Arial';font-size:24px;">90</text>
            </g>
            <g transform="matrix(1,-4.44089e-16,4.44089e-16,1,-45.1354,-64.3839)">
                <g transform="matrix(24,0,0,24,410.908,842.893)">
                </g>
                <text x="384.213px" y="842.893px" style="font-family:'ArialMT', 'Arial';font-size:24px;">80</text>
            </g>
            <g transform="matrix(1,-4.44089e-16,4.44089e-16,1,74.824,-64.3839)">
                <g transform="matrix(24,0,0,24,410.908,842.893)">
                </g>
                <text x="384.213px" y="842.893px" style="font-family:'ArialMT', 'Arial';font-size:24px;">70</text>
            </g>
            <g transform="matrix(1,-4.44089e-16,4.44089e-16,1,315.865,-64.3839)">
                <g transform="matrix(24,0,0,24,410.908,842.893)">
                </g>
                <text x="384.213px" y="842.893px" style="font-family:'ArialMT', 'Arial';font-size:24px;">50</text>
            </g>
            <g transform="matrix(1,-4.44089e-16,4.44089e-16,1,434.824,-64.3839)">
                <g transform="matrix(24,0,0,24,410.908,842.893)">
                </g>
                <text x="384.213px" y="842.893px" style="font-family:'ArialMT', 'Arial';font-size:24px;">40</text>
            </g>
            <g transform="matrix(1,-4.44089e-16,4.44089e-16,1,554.865,-64.3839)">
                <g transform="matrix(24,0,0,24,410.908,842.893)">
                </g>
                <text x="384.213px" y="842.893px" style="font-family:'ArialMT', 'Arial';font-size:24px;">30</text>
            </g>
            <g transform="matrix(1,-4.44089e-16,4.44089e-16,1,674.824,-64.3839)">
                <g transform="matrix(24,0,0,24,410.908,842.893)">
                </g>
                <text x="384.213px" y="842.893px" style="font-family:'ArialMT', 'Arial';font-size:24px;">20</text>
            </g>
            <g transform="matrix(1,-4.44089e-16,4.44089e-16,1,194.865,-64.3839)">
                <g transform="matrix(24,0,0,24,410.908,842.893)">
                </g>
                <text x="384.213px" y="842.893px" style="font-family:'ArialMT', 'Arial';font-size:24px;">60</text>
            </g>
            <g transform="matrix(1,-4.44089e-16,4.44089e-16,1,794.865,-64.3839)">
                <g transform="matrix(24,0,0,24,410.908,842.893)">
                </g>
                <text x="384.213px" y="842.893px" style="font-family:'ArialMT', 'Arial';font-size:24px;">10</text>
            </g>
            <g transform="matrix(1,-4.44089e-16,4.44089e-16,1,-285.135,-63.8761)">
                <g transform="matrix(24,0,0,24,417.582,842.893)">
                </g>
                <text x="377.539px" y="842.893px" style="font-family:'ArialMT', 'Arial';font-size:24px;">100</text>
            </g>
        </g>
    </g>
    <g transform="matrix(1,0,0,1,0,10.1855)">
        <g transform="matrix(1,0,0,1,0.268703,276.016)">
            <path d="M1178.33,92.841L1178.33,93.854L1159.7,96.803L1159.7,95.79L1178.33,92.841ZM1178.33,102.966L1178.33,103.978L1159.7,106.927L1159.7,105.915L1178.33,102.966ZM1178.33,113.091L1178.33,114.103L1159.7,117.052L1159.7,116.039L1178.33,113.091ZM1208.33,109.352L1208.33,108.34L1279.71,97.036L1279.71,98.048L1208.33,109.352ZM1208.33,99.228L1208.33,98.215L1279.71,86.911L1279.71,87.923L1208.33,99.228ZM1203.13,89.926L1196.74,89.926L1259.29,80.021L1265.68,80.021L1203.13,89.926ZM1056.34,91.029L1056.34,93.132L1039.67,98.549L1039.67,96.446L1056.34,91.029ZM1056.34,101.544L1056.34,103.647L1039.67,109.063L1039.67,106.961L1056.34,101.544ZM1056.34,112.059L1056.34,114.161L1039.67,119.578L1039.67,117.475L1056.34,112.059ZM1070.64,117.926L1077.11,117.926L1039.67,130.093L1039.67,127.99L1070.64,117.926ZM1088.34,114.28L1088.34,112.177L1159.67,89.001L1159.67,91.104L1088.34,114.28ZM1088.34,103.765L1088.34,101.662L1154.95,80.021L1159.67,80.021L1159.67,80.589L1088.34,103.765ZM1088.34,93.25L1088.34,91.147L1122.59,80.021L1129.06,80.021L1088.34,93.25ZM1066.21,89.926L1059.73,89.926L1090.22,80.021L1096.69,80.021L1066.21,89.926ZM936.338,97.646L936.338,101.013L919.689,109.495L919.689,109.911L799.682,197.096L799.682,195.958L795.642,199.999L788.57,199.999L799.719,188.85L799.719,192.124L919.689,104.967L919.689,106.128L936.338,97.646ZM936.338,108.869L936.338,112.236L919.689,120.718L919.689,122.271L812.7,199.999L805.894,199.999L919.689,117.327L919.689,117.351L936.338,108.869ZM940.59,117.926L947.198,117.926L919.689,131.942L919.689,134.632L829.714,199.999L822.908,199.999L919.633,129.728L919.633,128.603L940.59,117.926ZM962.618,117.926L968.338,117.926L968.338,115.012L1037.02,80.021L1039.64,80.021L1039.64,82.051L919.689,143.165L919.689,146.992L846.727,199.999L839.922,199.999L919.633,142.089L919.633,139.826L962.618,117.926ZM968.338,107.155L968.338,103.788L1014.99,80.021L1021.6,80.021L968.338,107.155ZM968.338,95.932L968.338,92.565L992.96,80.021L999.568,80.021L968.338,95.932ZM958.098,89.926L951.49,89.926L970.932,80.021L977.54,80.021L958.098,89.926ZM816.338,93.528L816.338,98.472L799.719,110.545L799.719,111.07L710.786,199.999L703.715,199.999L799.719,103.999L799.719,105.601L816.338,93.528ZM816.338,105.888L816.338,110.832L799.719,122.906L799.719,125.212L724.929,199.999L717.857,199.999L799.682,118.178L799.682,117.989L816.338,105.888ZM816.782,117.926L823.588,117.926L799.719,135.266L799.719,139.354L739.071,199.999L732,199.999L799.682,132.32L799.682,130.349L816.782,117.926ZM833.796,117.926L840.601,117.926L799.719,147.627L799.719,153.496L753.214,199.999L746.143,199.999L799.682,146.462L799.682,142.709L833.796,117.926ZM848.338,112.305L848.338,107.361L885.971,80.021L892.777,80.021L848.338,112.305ZM848.338,99.945L848.338,95.001L868.957,80.021L875.763,80.021L848.338,99.945ZM845.115,89.926L838.309,89.926L851.944,80.021L858.749,80.021L845.115,89.926ZM828.101,89.926L821.296,89.926L834.93,80.021L841.735,80.021L828.101,89.926ZM698.275,92.304L698.275,99.375L679.713,117.936L679.713,114.237L617.397,199.999L609.98,199.999L679.713,104.03L679.713,110.865L698.275,92.304ZM698.275,106.446L698.275,113.517L679.713,132.078L679.713,131.249L629.758,199.999L622.342,199.999L679.713,121.042L679.713,125.007L698.275,106.446ZM700.937,117.926L708.008,117.926L679.713,146.22L679.713,148.261L642.12,199.999L634.703,199.999L679.713,138.054L679.713,139.149L700.937,117.926ZM715.079,117.926L722.151,117.926L679.713,160.361L679.713,165.274L654.481,199.999L647.064,199.999L679.713,155.066L679.713,153.29L715.079,117.926ZM728.275,111.802L728.275,104.731L752.987,80.021L760.058,80.021L728.275,111.802ZM728.275,97.66L728.275,90.589L738.844,80.021L745.915,80.021L728.275,97.66ZM721.867,89.926L714.796,89.926L724.702,80.021L731.773,80.021L721.867,89.926ZM707.724,89.926L700.653,89.926L710.559,80.021L717.63,80.021L707.724,89.926ZM576.288,93.259L576.288,103.466L559.706,126.286L559.706,133.091L576.288,110.271L576.288,117.926L578.142,117.926L559.706,143.299L559.706,150.104L583.087,117.926L590.504,117.926L559.706,160.311L559.706,155.415L536.987,199.999L529.13,199.999L559.706,139.998L559.706,133.39L525.763,199.999L517.906,199.999L559.706,117.973L559.706,116.079L576.288,93.259ZM595.448,117.926L602.865,117.926L559.706,177.323L559.706,177.44L548.21,199.999L540.354,199.999L559.706,162.023L559.706,167.116L595.448,117.926ZM607.809,117.926L608.288,117.926L608.288,117.267L635.352,80.021L642.769,80.021L559.706,194.335L559.706,199.465L559.434,199.999L551.578,199.999L559.706,184.048L559.706,184.128L607.809,117.926ZM608.288,110.462L608.288,100.255L622.991,80.021L630.407,80.021L608.288,110.462ZM608.288,93.45L608.288,89.926L603.432,89.926L610.629,80.021L618.046,80.021L608.288,93.45ZM598.487,89.926L591.071,89.926L598.268,80.021L605.685,80.021L598.487,89.926ZM586.126,89.926L578.71,89.926L585.907,80.021L593.324,80.021L586.126,89.926ZM458.392,89.926L456.288,89.926L456.288,94.056L439.7,126.608L439.7,131.632L417.482,199.999L409.07,199.999L439.7,105.747L439.7,111.191L455.584,80.021L463.44,80.021L458.392,89.926ZM456.288,100.663L456.288,116.081L439.7,148.633L439.7,155.241L458.715,117.926L466.572,117.926L439.7,170.658L439.7,177.266L469.939,117.926L477.795,117.926L439.7,192.683L439.7,196.347L438.513,199.999L430.101,199.999L439.7,170.462L439.7,163.989L427.997,199.999L419.586,199.999L439.7,138.105L439.7,133.216L456.288,100.663ZM481.163,117.926L488.288,117.926L488.288,103.944L500.479,80.021L508.336,80.021L447.195,199.999L439.7,199.999L439.7,199.291L481.163,117.926ZM488.288,97.336L488.288,89.926L484.208,89.926L489.255,80.021L497.112,80.021L488.288,97.336ZM480.84,89.926L472.984,89.926L478.031,80.021L485.888,80.021L480.84,89.926ZM469.616,89.926L461.76,89.926L466.808,80.021L474.664,80.021L469.616,89.926ZM337.585,89.926L336.288,89.926L336.288,93.918L319.693,144.985L319.693,139.58L310.122,199.999L301.01,199.999L319.693,82.058L319.693,86.743L321.877,80.021L330.289,80.021L319.693,112.627L319.693,119.1L332.393,80.021L340.804,80.021L337.585,89.926ZM336.288,100.391L336.288,117.926L339.001,117.926L319.693,177.342L319.693,183.814L341.105,117.926L349.517,117.926L322.845,199.999L311.135,199.999L319.693,145.975L319.693,151.457L336.288,100.391ZM351.62,117.926L360.032,117.926L333.36,199.999L324.949,199.999L351.62,117.926ZM362.135,117.926L368.288,117.926L368.288,98.993L374.453,80.021L382.865,80.021L343.876,199.999L335.464,199.999L362.135,117.926ZM368.288,92.52L368.288,89.926L360.719,89.926L363.938,80.021L372.35,80.021L368.288,92.52ZM358.616,89.926L350.204,89.926L353.423,80.021L361.835,80.021L358.616,89.926ZM348.101,89.926L339.689,89.926L342.908,80.021L351.32,80.021L348.101,89.926ZM216.288,95.647L216.288,117.926L221.871,117.926L208.87,199.999L199.757,199.999L216.288,95.647ZM222.884,117.926L231.996,117.926L218.995,199.999L209.883,199.999L222.884,117.926ZM233.009,117.926L242.121,117.926L229.12,199.999L220.008,199.999L233.009,117.926ZM243.134,117.926L248.288,117.926L248.288,89.926L247.57,89.926L249.139,80.021L258.251,80.021L239.245,199.999L230.133,199.999L243.134,117.926ZM246.557,89.926L237.445,89.926L239.014,80.021L248.126,80.021L246.557,89.926ZM236.432,89.926L227.32,89.926L228.889,80.021L238.001,80.021L236.432,89.926ZM226.307,89.926L217.194,89.926L218.763,80.021L227.876,80.021L226.307,89.926ZM199.731,193.769L199.731,200.021L79.731,200.021L79.731,199.999L79.719,199.999L79.719,80.021L207.625,80.021L199.731,129.852L199.731,136.247L208.638,80.021L217.75,80.021L199.731,193.769ZM134.3,89.926L92.3,89.926L92.3,117.926L134.3,117.926L134.3,89.926ZM1195.35,80.021L1201.74,80.021L1159.7,86.678L1159.7,85.665L1195.35,80.021ZM1057.86,80.021L1064.33,80.021L1039.67,88.034L1039.67,85.931L1057.86,80.021ZM948.904,80.021L955.512,80.021L919.633,98.301L919.633,97.591L799.682,184.735L799.682,181.816L781.499,199.999L774.428,199.999L799.719,174.708L799.719,179.764L919.689,92.606L919.689,94.905L948.904,80.021ZM926.875,80.021L933.484,80.021L919.633,87.078L919.633,85.231L799.682,172.375L799.682,167.675L767.356,199.999L760.285,199.999L799.719,160.567L799.719,167.403L919.689,80.246L919.689,83.682L926.875,80.021ZM902.985,80.021L909.79,80.021L799.682,160.014L799.682,155.07L902.985,80.021ZM817.916,80.021L824.722,80.021L799.682,98.212L799.682,96.966L696.643,199.999L689.572,199.999L799.719,89.858L799.719,93.241L817.916,80.021ZM795.414,80.021L799.719,80.021L799.719,80.88L800.902,80.021L807.708,80.021L799.682,85.851L799.682,82.824L682.501,199.999L679.713,199.999L679.713,199.298L679.203,199.999L671.787,199.999L679.713,189.091L679.713,195.716L795.414,80.021ZM767.129,80.021L774.201,80.021L679.713,174.503L679.713,181.574L781.272,80.021L788.343,80.021L679.713,188.645L679.713,182.286L666.842,199.999L659.426,199.999L679.713,172.079L679.713,167.432L767.129,80.021ZM682.274,80.021L689.345,80.021L679.713,89.652L679.713,96.723L696.416,80.021L703.488,80.021L679.713,103.794L679.713,97.225L605.036,199.999L597.619,199.999L679.713,87.018L679.713,82.581L682.274,80.021ZM672.436,80.021L679.713,80.021L679.713,80.213L592.675,199.999L585.258,199.999L672.436,80.021ZM660.075,80.021L667.491,80.021L580.313,199.999L572.897,199.999L660.075,80.021ZM647.713,80.021L655.13,80.021L567.952,199.999L560.535,199.999L647.713,80.021ZM573.546,80.021L580.962,80.021L559.706,109.274L559.706,111.365L514.539,199.999L506.682,199.999L559.706,95.948L559.706,99.067L573.546,80.021ZM556.599,80.021L559.706,80.021L559.706,82.055L561.184,80.021L568.601,80.021L559.706,92.262L559.706,89.34L503.315,199.999L495.458,199.999L556.599,80.021ZM545.375,80.021L553.231,80.021L492.091,199.999L484.234,199.999L545.375,80.021ZM534.151,80.021L542.007,80.021L480.867,199.999L473.011,199.999L534.151,80.021ZM522.927,80.021L530.783,80.021L469.643,199.999L461.787,199.999L522.927,80.021ZM511.703,80.021L519.56,80.021L458.419,199.999L450.563,199.999L511.703,80.021ZM437.545,80.021L440.992,80.021L439.7,82.558L439.7,89.166L444.36,80.021L452.216,80.021L439.7,104.583L439.7,99.275L406.967,199.999L398.555,199.999L437.545,80.021ZM427.03,80.021L435.441,80.021L396.452,199.999L388.04,199.999L427.03,80.021ZM416.514,80.021L424.926,80.021L385.937,199.999L377.525,199.999L416.514,80.021ZM405.999,80.021L414.411,80.021L375.421,199.999L367.01,199.999L405.999,80.021ZM395.484,80.021L403.896,80.021L364.906,199.999L356.494,199.999L395.484,80.021ZM384.969,80.021L393.381,80.021L354.391,199.999L345.979,199.999L384.969,80.021ZM319.693,80.021L319.774,80.021L319.693,80.27L319.693,80.021ZM309.89,80.021L319.003,80.021L299.997,199.999L290.884,199.999L309.89,80.021ZM299.765,80.021L308.877,80.021L289.871,199.999L280.759,199.999L299.765,80.021ZM289.64,80.021L298.752,80.021L279.746,199.999L270.634,199.999L289.64,80.021ZM279.515,80.021L288.627,80.021L269.621,199.999L260.509,199.999L279.515,80.021ZM269.39,80.021L278.502,80.021L259.496,199.999L250.384,199.999L269.39,80.021ZM259.264,80.021L268.377,80.021L249.371,199.999L240.258,199.999L259.264,80.021ZM1159.7,198.049L1159.7,197.037L1279.71,178.033L1279.71,179.045L1159.7,198.049ZM1159.67,194.147L1159.67,196.249L1148.13,199.999L1141.66,199.999L1159.67,194.147ZM1051.04,199.999L1044.57,199.999L1159.67,162.603L1159.67,164.706L1051.04,199.999ZM1039.67,172.151L1039.67,170.048L1159.67,131.059L1159.67,133.162L1039.67,172.151ZM1115.77,199.999L1109.3,199.999L1159.67,183.632L1159.67,185.735L1115.77,199.999ZM1039.67,182.665L1039.67,180.563L1159.67,141.574L1159.67,143.677L1039.67,182.665ZM1039.67,140.607L1039.67,138.504L1159.67,99.515L1159.67,101.618L1039.67,140.607ZM1039.67,193.18L1039.67,191.077L1159.67,152.088L1159.67,154.191L1039.67,193.18ZM1039.67,161.636L1039.67,159.533L1159.67,120.545L1159.67,122.647L1039.67,161.636ZM1083.4,199.999L1076.93,199.999L1159.67,173.117L1159.67,175.22L1083.4,199.999ZM1039.67,151.122L1039.67,149.019L1159.67,110.03L1159.67,112.133L1039.67,151.122ZM919.633,154.416L919.633,151.05L1039.64,89.907L1039.64,93.274L919.633,154.416ZM919.633,165.64L919.633,162.273L1039.64,101.13L1039.64,104.497L919.633,165.64ZM1159.7,157.55L1159.7,156.538L1279.71,137.534L1279.71,138.547L1159.7,157.55ZM1159.7,187.924L1159.7,186.912L1279.71,167.908L1279.71,168.921L1159.7,187.924ZM940.307,199.999L933.699,199.999L1039.64,146.023L1039.64,149.39L940.307,199.999ZM919.633,188.086L919.633,184.719L1039.64,123.577L1039.64,126.944L919.633,188.086ZM984.363,199.999L977.755,199.999L1039.64,168.469L1039.64,171.836L984.363,199.999ZM919.633,176.863L919.633,173.496L1039.64,112.354L1039.64,115.721L919.633,176.863ZM1159.7,167.675L1159.7,166.663L1279.71,147.659L1279.71,148.671L1159.7,167.675ZM1039.64,190.916L1039.64,194.283L1028.42,199.999L1021.81,199.999L1039.64,190.916ZM1006.39,199.999L999.783,199.999L1039.64,179.692L1039.64,183.059L1006.39,199.999ZM962.335,199.999L955.727,199.999L1039.64,157.246L1039.64,160.613L962.335,199.999ZM1279.71,198.282L1279.71,199.295L1275.26,199.999L1268.87,199.999L1279.71,198.282ZM1211.33,199.999L1204.93,199.999L1279.71,188.157L1279.71,189.17L1211.33,199.999ZM1159.7,147.426L1159.7,146.413L1279.71,127.41L1279.71,128.422L1159.7,147.426ZM919.633,196.475L914.782,199.999L907.977,199.999L919.689,191.49L919.689,195.914L1039.64,134.8L1039.64,138.167L919.633,199.309L919.633,196.475ZM1159.7,177.8L1159.7,176.787L1279.71,157.783L1279.71,158.796L1159.7,177.8ZM880.755,199.999L873.949,199.999L919.689,166.769L919.689,171.713L880.755,199.999ZM863.741,199.999L856.936,199.999L919.689,154.408L919.689,159.353L863.741,199.999ZM897.768,199.999L890.963,199.999L919.689,179.129L919.689,184.074L897.768,199.999ZM1159.7,137.301L1159.7,136.289L1279.71,117.285L1279.71,118.297L1159.7,137.301ZM1159.7,127.177L1159.7,126.164L1279.71,107.16L1279.71,108.173L1159.7,127.177Z" style="fill:rgb(6,99,181);"/>
        </g>
        <g transform="matrix(1,0,0,1,0,-390)">
            <g transform="matrix(1,-4.44089e-16,4.44089e-16,1,-165.176,-64.3839)">
                <g transform="matrix(24,0,0,24,410.908,842.893)">
                </g>
                <text x="384.213px" y="842.893px" style="font-family:'ArialMT', 'Arial';font-size:24px;">90</text>
            </g>
            <g transform="matrix(1,-4.44089e-16,4.44089e-16,1,-45.1354,-64.3839)">
                <g transform="matrix(24,0,0,24,410.908,842.893)">
                </g>
                <text x="384.213px" y="842.893px" style="font-family:'ArialMT', 'Arial';font-size:24px;">80</text>
            </g>
            <g transform="matrix(1,-4.44089e-16,4.44089e-16,1,74.824,-64.3839)">
                <g transform="matrix(24,0,0,24,410.908,842.893)">
                </g>
                <text x="384.213px" y="842.893px" style="font-family:'ArialMT', 'Arial';font-size:24px;">70</text>
            </g>
            <g transform="matrix(1,-4.44089e-16,4.44089e-16,1,315.865,-64.3839)">
                <g transform="matrix(24,0,0,24,410.908,842.893)">
                </g>
                <text x="384.213px" y="842.893px" style="font-family:'ArialMT', 'Arial';font-size:24px;">50</text>
            </g>
            <g transform="matrix(1,-4.44089e-16,4.44089e-16,1,434.824,-64.3839)">
                <g transform="matrix(24,0,0,24,410.908,842.893)">
                </g>
                <text x="384.213px" y="842.893px" style="font-family:'ArialMT', 'Arial';font-size:24px;">40</text>
            </g>
            <g transform="matrix(1,-4.44089e-16,4.44089e-16,1,554.865,-64.3839)">
                <g transform="matrix(24,0,0,24,410.908,842.893)">
                </g>
                <text x="384.213px" y="842.893px" style="font-family:'ArialMT', 'Arial';font-size:24px;">30</text>
            </g>
            <g transform="matrix(1,-4.44089e-16,4.44089e-16,1,674.824,-64.3839)">
                <g transform="matrix(24,0,0,24,410.908,842.893)">
                </g>
                <text x="384.213px" y="842.893px" style="font-family:'ArialMT', 'Arial';font-size:24px;">20</text>
            </g>
            <g transform="matrix(1,-4.44089e-16,4.44089e-16,1,194.865,-64.3839)">
                <g transform="matrix(24,0,0,24,410.908,842.893)">
                </g>
                <text x="384.213px" y="842.893px" style="font-family:'ArialMT', 'Arial';font-size:24px;">60</text>
            </g>
            <g transform="matrix(1,-4.44089e-16,4.44089e-16,1,794.865,-64.3839)">
                <g transform="matrix(24,0,0,24,410.908,842.893)">
                </g>
                <text x="384.213px" y="842.893px" style="font-family:'ArialMT', 'Arial';font-size:24px;">10</text>
            </g>
            <g transform="matrix(1,-4.44089e-16,4.44089e-16,1,-285.135,-63.8761)">
                <g transform="matrix(24,0,0,24,417.582,842.893)">
                </g>
                <text x="377.539px" y="842.893px" style="font-family:'ArialMT', 'Arial';font-size:24px;">100</text>
            </g>
        </g>
    </g>
</svg>
